<?xml version="1.0" encoding="UTF-8" standalone="no"?>
<!DOCTYPE svg PUBLIC "-//W3C//DTD SVG 1.1//EN" "http://www.w3.org/Graphics/SVG/1.1/DTD/svg11.dtd">
<svg width="100%" height="100%" viewBox="0 0 1280 800" version="1.1" xmlns="http://www.w3.org/2000/svg" xmlns:xlink="http://www.w3.org/1999/xlink" xml:space="preserve" xmlns:serif="http://www.serif.com/" style="fill-rule:evenodd;clip-rule:evenodd;stroke-linejoin:round;stroke-miterlimit:1.41421;">
    <g id="Logo">
        <g transform="matrix(1,0,0,1,500.488,0)">
            <g transform="matrix(120,0,0,120,325.64,290.033)">
                <path d="M0.178,-0.255C0.178,-0.245 0.177,-0.221 0.164,-0.206C0.157,-0.198 0.148,-0.194 0.136,-0.194C0.122,-0.194 0.112,-0.199 0.105,-0.206C0.096,-0.214 0.087,-0.233 0.083,-0.247L0.078,-0.264L-0.01,-0.058L0.017,-0.039C0.079,0.005 0.143,0.015 0.189,0.015C0.251,0.015 0.312,-0.007 0.356,-0.053C0.382,-0.08 0.416,-0.129 0.416,-0.202L0.416,-0.667L0.178,-0.667L0.178,-0.255Z" style="fill-rule:nonzero;"/>
            </g>
            <g transform="matrix(120,0,0,120,405.664,290.033)">
                <path d="M0.067,-0.241C0.067,-0.192 0.076,-0.129 0.128,-0.073C0.204,0.009 0.315,0.015 0.376,0.015C0.45,0.015 0.546,0.002 0.614,-0.068C0.674,-0.13 0.684,-0.206 0.684,-0.258L0.684,-0.667L0.443,-0.667L0.443,-0.28C0.443,-0.263 0.443,-0.228 0.425,-0.21C0.416,-0.201 0.401,-0.194 0.376,-0.194C0.357,-0.194 0.341,-0.198 0.328,-0.212C0.309,-0.232 0.307,-0.26 0.307,-0.28L0.307,-0.667L0.067,-0.667L0.067,-0.241Z" style="fill-rule:nonzero;"/>
            </g>
            <g transform="matrix(120,0,0,120,407.088,390)">
                <path d="M0.303,0L0.303,-0.214L0.307,-0.216C0.31,-0.205 0.313,-0.202 0.316,-0.195L0.412,0L0.691,0L0.541,-0.225C0.532,-0.239 0.519,-0.249 0.506,-0.256L0.506,-0.262C0.545,-0.27 0.578,-0.29 0.598,-0.315C0.617,-0.338 0.635,-0.375 0.635,-0.434C0.635,-0.513 0.606,-0.564 0.572,-0.598C0.511,-0.659 0.438,-0.667 0.368,-0.667L0.067,-0.667L0.067,0L0.303,0ZM0.303,-0.484L0.345,-0.484C0.365,-0.484 0.378,-0.475 0.386,-0.466C0.395,-0.456 0.399,-0.441 0.399,-0.426C0.399,-0.405 0.39,-0.392 0.382,-0.385C0.367,-0.372 0.345,-0.37 0.331,-0.37L0.303,-0.37L0.303,-0.484Z" style="fill-rule:nonzero;"/>
            </g>
            <g transform="matrix(120,0,0,120,527.44,390)">
                <rect x="0.067" y="-0.667" width="0.242" height="0.667" style="fill-rule:nonzero;"/>
            </g>
            <g transform="matrix(120,0,0,120,302.048,490)">
                <path d="M0.299,0L0.299,-0.215C0.299,-0.237 0.298,-0.255 0.294,-0.278L0.299,-0.278C0.308,-0.258 0.319,-0.234 0.331,-0.214L0.453,0L0.733,0L0.503,-0.34L0.711,-0.667L0.449,-0.667L0.334,-0.451C0.322,-0.429 0.313,-0.414 0.299,-0.376L0.294,-0.376C0.298,-0.406 0.299,-0.43 0.299,-0.46L0.299,-0.667L0.067,-0.667L0.067,0L0.299,0Z" style="fill-rule:nonzero;"/>
            </g>
            <g transform="matrix(120,0,0,120,406.504,490.033)">
                <path d="M0.458,-0.083L0.48,0L0.737,0L0.499,-0.667L0.231,-0.667L0,0L0.256,0L0.274,-0.083L0.458,-0.083ZM0.385,-0.369L0.416,-0.241L0.319,-0.241L0.352,-0.369C0.358,-0.393 0.362,-0.416 0.363,-0.444L0.372,-0.444C0.375,-0.42 0.379,-0.395 0.385,-0.369Z" style="fill-rule:nonzero;"/>
            </g>
        </g>
        <path d="M735,210L765,210L765,334.98L865,334.98L865,364.98L765,364.98L765,490L735,490L735,210Z"/>
        <path d="M1165,490L1150,490L1035,490L1035,460L1135,460L1135,240L1035,240L1035,210L1165,210L1165,490Z"/>
    </g>
    <g transform="matrix(1,0,0,1,-94.5125,0)">
        <g transform="matrix(12.0396,0,0,12.0396,-2645.39,-2435.26)">
            <text x="246.771px" y="226.36px" style="font-family:'FuturaPT-ExtraBold', 'Futura PT', sans-serif;font-weight:800;font-size:9.967px;">J</text>
        </g>
        <g transform="matrix(12.0396,0,0,12.0396,-2565.37,-2435.26)">
            <text x="246.771px" y="226.36px" style="font-family:'FuturaPT-ExtraBold', 'Futura PT', sans-serif;font-weight:800;font-size:9.967px;">U</text>
        </g>
        <g transform="matrix(12.0396,0,0,12.0396,-2563.95,-2335.29)">
            <text x="246.771px" y="226.36px" style="font-family:'FuturaPT-ExtraBold', 'Futura PT', sans-serif;font-weight:800;font-size:9.967px;">R</text>
        </g>
        <g transform="matrix(12.0396,0,0,12.0396,-2443.59,-2335.29)">
            <text x="246.771px" y="226.36px" style="font-family:'FuturaPT-ExtraBold', 'Futura PT', sans-serif;font-weight:800;font-size:9.967px;">I</text>
        </g>
        <g transform="matrix(12.0396,0,0,12.0396,-2668.99,-2235.29)">
            <text x="246.771px" y="226.36px" style="font-family:'FuturaPT-ExtraBold', 'Futura PT', sans-serif;font-weight:800;font-size:9.967px;">K</text>
        </g>
        <g transform="matrix(12.0396,0,0,12.0396,-2564.53,-2235.26)">
            <text x="246.771px" y="226.36px" style="font-family:'FuturaPT-ExtraBold', 'Futura PT', sans-serif;font-weight:800;font-size:9.967px;">A</text>
        </g>
    </g>
    <g transform="matrix(1.15,0,0,1,-730.5,4.98)">
        <rect x="770" y="330" width="100" height="30"/>
    </g>
    <g transform="matrix(1.15,0,0,1,-445.5,105)">
        <rect x="770" y="330" width="100" height="30"/>
    </g>
    <g transform="matrix(1.15,0,0,1,-445.5,-95)">
        <rect x="770" y="330" width="100" height="30"/>
    </g>
    <g transform="matrix(1,0,0,9.2,-590,-2617)">
        <rect x="730" y="310" width="30" height="25"/>
    </g>
    <g transform="matrix(1,0,0,9.2,-190,-2617)">
        <rect x="730" y="310" width="30" height="25"/>
    </g>
</svg>
