<?xml version="1.0" encoding="UTF-8" standalone="no"?>
<!DOCTYPE svg PUBLIC "-//W3C//DTD SVG 1.1//EN" "http://www.w3.org/Graphics/SVG/1.1/DTD/svg11.dtd">
<svg width="100%" height="100%" viewBox="0 0 500 263" version="1.1" xmlns="http://www.w3.org/2000/svg" xmlns:xlink="http://www.w3.org/1999/xlink" xml:space="preserve" xmlns:serif="http://www.serif.com/" style="fill-rule:evenodd;clip-rule:evenodd;stroke-linejoin:round;stroke-miterlimit:2;">
    <g transform="matrix(1,0,0,1,-164.575,-125.514)">
        <g transform="matrix(1,0,0,1,-21.8583,-275.484)">
            <path d="M186.433,400.997L276.121,400.997L331.257,491.42L386.393,400.997L476.08,400.997L476.08,658.298L390.436,658.298L390.436,530.751L331.073,622.276L329.603,622.276L270.24,530.751L270.24,658.298L186.433,658.298L186.433,400.997Z" style="fill:url(#_Linear1);fill-rule:nonzero;"/>
            <path d="M584.882,663.444C572.629,663.444 561.602,662.28 551.8,659.952C541.998,657.625 533.177,654.316 525.335,650.028C517.494,645.74 510.571,640.716 504.567,634.958C498.564,629.199 493.234,622.766 488.578,615.66L544.816,568.243C549.717,575.349 554.741,580.863 559.887,584.784C565.033,588.705 571.159,590.665 578.266,590.665C585.372,590.665 591.131,587.969 595.541,582.578C599.952,577.187 602.158,569.958 602.158,560.892L602.158,400.997L685.964,400.997L685.964,559.421C685.964,576.33 683.881,590.849 679.716,602.979C675.55,615.109 668.688,625.952 659.132,635.509C650.31,644.331 639.589,651.192 626.969,656.093C614.349,660.994 600.32,663.444 584.882,663.444Z" style="fill:url(#_Linear2);fill-rule:nonzero;"/>
        </g>
    </g>
    <defs>
        <linearGradient id="_Linear1" x1="0" y1="0" x2="1" y2="0" gradientUnits="userSpaceOnUse" gradientTransform="matrix(499.531,0,0,262.447,186.433,532.221)"><stop offset="0" style="stop-color:rgb(32,191,85);stop-opacity:1"/><stop offset="1" style="stop-color:rgb(1,103,239);stop-opacity:1"/></linearGradient>
        <linearGradient id="_Linear2" x1="0" y1="0" x2="1" y2="0" gradientUnits="userSpaceOnUse" gradientTransform="matrix(499.531,0,0,262.447,186.433,532.221)"><stop offset="0" style="stop-color:rgb(32,191,85);stop-opacity:1"/><stop offset="1" style="stop-color:rgb(1,103,239);stop-opacity:1"/></linearGradient>
    </defs>
</svg>
